<svg width="18" height="20" viewBox="0 0 18 20" fill="none" xmlns="http://www.w3.org/2000/svg">
<path d="M14 20H4C2.89543 20 2 19.1046 2 18V5H1C0.447715 5 0 4.55228 0 4C0 3.44772 0.447715 3 1 3H4V2C4 0.89543 4.89543 0 6 0H12C13.1046 0 14 0.89543 14 2V3H17C17.5523 3 18 3.44772 18 4C18 4.55228 17.5523 5 17 5H16V18C16 19.1046 15.1046 20 14 20ZM4 5V18H14V5H4ZM6 2V3H12V2H6ZM12 15C12 15.5523 11.5523 16 11 16C10.4477 16 10 15.5523 10 15V8C10 7.44772 10.4477 7 11 7C11.5523 7 12 7.44772 12 8V15ZM8 15C8 15.5523 7.55228 16 7 16C6.44772 16 6 15.5523 6 15V8C6 7.44772 6.44772 7 7 7C7.55228 7 8 7.44772 8 8V15Z" fill="black"/>
</svg>
